Coordinates
version=1
nRows=19
nColumns=36
inDegrees=yes

Units are S.I. units (second, meters, Newtons, ...)
If the header above contains a line with 'inDegrees', this indicates whether rotational values are in degrees (yes) or radians (no).

endheader
time	pelvis_tilt	pelvis_list	pelvis_rotation	pelvis_tx	pelvis_ty	pelvis_tz	hip_flexion_r	hip_adduction_r	hip_rotation_r	knee_angle_r	knee_angle_r_beta	ankle_angle_r	subtalar_angle_r	mtp_angle_r	hip_flexion_l	hip_adduction_l	hip_rotation_l	knee_angle_l	knee_angle_l_beta	ankle_angle_l	subtalar_angle_l	mtp_angle_l	lumbar_extension	lumbar_bending	lumbar_rotation	arm_flex_r	arm_add_r	arm_rot_r	elbow_flex_r	pro_sup_r	arm_flex_l	arm_add_l	arm_rot_l	elbow_flex_l	pro_sup_l
      7.36666670	     -6.26888774	      1.43856571	     -1.99352741	      0.33957099	      1.14823482	     -0.06678600	      2.47281841	     -8.87842199	     -0.04091503	      0.64854359	      0.01131922	      4.24305257	     -1.14924803	     -7.49999987	      1.97498679	     -3.29917295	     -1.39538005	      1.47569095	      0.02575567	     -0.66169660	     -8.84461097	     -7.49999987	      5.84969171	     -3.32201590	     17.73097066	   -138.05007914	    -28.00854592	   -322.50087619	     32.83323824	     83.92678724	    119.12653116	    -20.68668943	    123.60845093	     20.94894134	     43.86608422
      7.38333330	     -6.24203906	      1.42903485	     -1.95666050	      0.33958096	      1.14804485	     -0.06677487	      2.41849672	     -8.87234355	     -0.06475225	      0.65825709	      0.01148875	      4.13022663	     -1.33224175	     -7.49999987	      1.96845038	     -3.30042191	     -1.43481197	      1.48945092	      0.02599582	     -0.54956087	     -8.58989148	     -7.49999987	      5.60536669	     -3.62442527	     18.40188048	   -136.44753631	    -27.68961730	   -323.47621428	     32.57616745	     93.33161147	    119.06838183	    -19.47733246	    125.27873783	     20.10135655	     40.36426025
      7.40000000	     -6.26911536	      1.40769219	     -1.91301910	      0.33959751	      1.14521138	     -0.06692745	      2.44714034	     -8.85768211	     -0.12135749	      0.66939567	      0.01168316	      4.06882797	     -1.50554379	     -7.49999987	      2.00236052	     -3.32326615	     -1.38467120	      1.51212231	      0.02639151	     -0.48513026	     -8.55520534	     -7.49999987	      5.54430253	     -3.62443944	     18.56337118	   -135.93393322	    -27.58811216	   -321.89033423	     32.08034964	     92.80137165	    118.71786155	    -19.59841074	    126.75766668	     20.50475280	     39.07751054
      7.41666670	     -6.26746889	      1.36940490	     -1.89496549	      0.33961964	      1.14521685	     -0.06704662	      2.45697627	     -8.83698678	     -0.17271424	      0.69205188	      0.01207858	      4.03101210	     -1.60583076	     -7.49999987	      1.99240095	     -3.37606177	     -1.29910299	      1.51206657	      0.02639054	     -0.41242325	     -8.49867691	     -7.49999987	      5.30643808	     -3.61747685	     19.22306767	   -135.20253167	    -26.99640187	   -322.69395015	     32.49381137	     87.60773629	    118.51302015	    -19.25943795	    128.45512566	     21.27735144	     40.75322695
      7.43333330	     -6.25919113	      1.34138987	     -1.87763668	      0.33972935	      1.14549302	     -0.06714585	      2.45014979	     -8.82353040	     -0.21565508	      0.69319982	      0.01209862	      3.99842473	     -1.66401802	     -7.49999987	      1.97280619	     -3.41446939	     -1.21450091	      1.52649331	      0.02664233	     -0.27919601	     -8.45783638	     -7.49999987	      4.91904817	     -3.79705031	     19.67489287	   -134.26938502	    -26.52117040	   -324.65423522	     32.76787591	     88.62992977	    118.76527201	    -18.66892165	    131.17012903	     21.66982261	     37.06026917
      7.45000000	     -6.26670224	      1.31548968	     -1.84455226	      0.33976165	      1.14548517	     -0.06717254	      2.46153236	     -8.80284548	     -0.19088666	      0.71436108	      0.01246795	      3.95499075	     -1.84038214	     -7.49999987	      1.96992218	     -3.45885236	     -1.13575075	      1.53259238	      0.02674878	     -0.19628960	     -8.37711737	     -7.49999987	      4.68017645	     -3.89125589	     19.68590456	   -134.62938721	    -26.33487622	   -325.59719933	     32.92539574	     90.61399551	    118.66590494	    -18.57767172	    129.84845167	     21.04403138	     37.16579075
      7.46666670	     -6.33069237	      1.29486226	     -1.80018478	      0.33983866	      1.14570623	     -0.06733826	      2.53214165	     -8.78915632	     -0.11814741	      0.73759522	      0.01287347	      3.81577935	     -2.12633859	     -7.49999987	      2.03442717	     -3.48788710	     -0.97756296	      1.53981579	      0.02687486	     -0.18517885	     -8.45993767	     -7.49999987	      4.39291170	     -4.26842544	     20.27436727	   -133.32519498	    -27.07973434	   -318.47092811	     33.70527558	     73.47797869	    117.62780449	    -17.86555671	    126.21702326	     19.12316688	     48.53639263
      7.48333330	     -6.27599393	      1.26270968	     -1.80302289	      0.33982034	      1.14568609	     -0.06741200	      2.47348682	     -8.75710217	     -0.03439613	      0.75222789	      0.01312885	      3.84995681	     -2.36046763	     -7.49999987	      1.97223822	     -3.53679556	     -1.05334831	      1.55646241	      0.02716539	     -0.03212782	     -8.30342586	     -7.49999987	      4.02204025	     -4.53383113	     21.42154243	   -131.26753327	    -27.24969105	   -312.56622679	     33.83996003	     66.85995014	    116.72588196	    -16.84844580	    123.16712284	     18.45197999	     51.79740382
      7.50000000	     -6.18781793	      1.23315082	     -1.70004031	      0.33977027	      1.14599433	     -0.06761080	      2.35516260	     -8.74620782	     -0.24289959	      0.76555335	      0.01336143	      3.91249395	     -2.20698100	     -7.49999987	      1.90261411	     -3.56168904	     -0.92860936	      1.53681225	      0.02682243	      0.02208486	     -8.33700804	     -7.49999987	      3.51151631	     -4.75964990	     22.64221387	   -128.88291751	    -26.90589447	   -310.19367128	     32.74494144	     90.07060780	    116.78387422	    -15.64053386	    125.21729506	     19.30487255	     41.21627015
      7.51666670	     -6.19739934	      1.22251552	     -1.66896886	      0.33973114	      1.14602133	     -0.06761967	      2.36043144	     -8.73771428	     -0.23116917	      0.77676299	      0.01355707	      3.86829813	     -2.36404691	     -7.49999987	      1.96051294	     -3.56906658	     -0.95003919	      1.58674925	      0.02769400	      0.04496151	     -8.39783093	     -7.49999987	      3.22099444	     -5.08374003	     23.20516388	   -125.86833124	    -27.67342634	   -299.78241970	     31.28847684	     92.67747413	    117.00075036	    -14.69148874	    123.71219115	     18.35312520	     42.57082137
      7.53333330	     -6.23208922	      1.19784220	     -1.64155209	      0.33974542	      1.14620496	     -0.06775010	      2.39611108	     -8.71242401	     -0.27170634	      0.78713842	      0.01373816	      3.83870621	     -2.42956037	     -7.49999987	      2.02214210	     -3.58954545	     -0.96552784	      1.58435389	      0.02765219	      0.03619708	     -8.44958062	     -7.49999987	      2.93017445	     -5.31914973	     23.81943798	   -122.29186501	    -27.99392315	   -287.93551672	     30.37675918	     80.84255869	    117.04852758	    -14.06290105	    123.67886225	     18.22441279	     49.65271370
      7.55000000	     -6.21400737	      1.19458784	     -1.58277965	      0.33973929	      1.14624534	     -0.06776901	      2.35036778	     -8.70886151	     -0.35715548	      0.78742862	      0.01374322	      3.85005255	     -2.46438765	     -7.49999987	      2.01101746	     -3.59113140	     -0.84681013	      1.60031574	      0.02793078	      0.01406280	     -8.52436830	     -7.49999987	      2.57096423	     -5.83025707	     24.38551933	   -118.66920968	    -28.60980814	   -280.63534403	     30.34519166	     89.03279805	    118.43359080	    -12.77914560	    135.00775180	     20.42178544	     37.23772508
      7.56666670	     -6.17524552	      1.16864404	     -1.59600815	      0.33975351	      1.14642410	     -0.06784511	      2.31223783	     -8.68159723	     -0.27101048	      0.78630270	      0.01372357	      3.86514840	     -2.60260506	     -7.49999987	      1.97867524	     -3.62927970	     -0.93586991	      1.63690882	      0.02856945	      0.08592129	     -8.46123550	     -7.49999987	      2.30388750	     -5.97184191	     24.53094982	   -117.97135822	    -28.82835136	   -276.75165157	     29.84639103	     88.39613617	    119.06936202	    -12.52748041	    140.83791483	     21.91416467	     31.35166943
      7.58333330	     -6.14774833	      1.16389292	     -1.58578034	      0.33969776	      1.14641060	     -0.06780329	      2.28023262	     -8.67314183	     -0.29414959	      0.79200919	      0.01382317	      3.84728338	     -2.63645360	     -7.49999987	      1.94825924	     -3.65038671	     -0.91668753	      1.64286709	      0.02867344	      0.07620992	     -8.48117104	     -7.49999987	      2.07934141	     -6.18522185	     24.94843880	   -115.93594293	    -28.99512799	   -267.30391001	     28.99174239	     78.92000278	    119.01947448	    -12.46925243	    138.69353955	     21.57975805	     38.61395057
      7.60000000	     -6.27909390	      1.13222872	     -1.54713379	      0.33975210	      1.14647791	     -0.06787841	      2.36861403	     -8.59595304	     -0.13547520	      0.79775943	      0.01392353	      3.83628350	     -2.82682472	     -7.49999987	      2.10706179	     -3.70133140	     -0.75624347	      1.67999827	      0.02932150	      0.05227947	     -8.72733834	     -7.49999987	      2.46941914	     -6.72710866	     25.09085980	   -112.55109391	    -31.85622962	   -257.08906545	     33.85585317	     69.95327247	    118.00322088	    -11.85933708	    135.50317430	     19.57497136	     46.64974849
      7.61666670	     -6.18921982	      1.09498659	     -1.49240167	      0.33970970	      1.14657858	     -0.06778923	      2.19608224	     -8.51624763	     -0.16706366	      0.79366249	      0.01385202	      3.91759975	     -2.67030627	     -7.49999987	      2.01579112	     -3.75741763	     -0.80372849	      1.71030872	      0.02985052	      0.20534352	     -8.38506542	     -7.49999987	      2.40432983	     -6.85165118	     26.03123133	   -111.38690470	    -31.88581645	   -255.70207526	     34.78671574	     81.53377704	    118.57107935	    -10.65738798	    144.47232461	     21.54719564	     28.47158923
      7.63333330	     -6.22219889	      1.06481262	     -1.44291145	      0.33978690	      1.14354001	     -0.06759580	      2.18140503	     -8.44849312	     -0.06943262	      0.82187000	      0.01434434	      4.01680960	     -2.71235592	     -7.49999987	      2.07207123	     -3.80424222	     -0.72966670	      1.75113169	      0.03056301	      0.27159809	     -8.44941434	     -7.49999987	      2.63099328	     -7.09652699	     26.49063401	   -109.99543961	    -32.77655548	   -249.69413501	     36.71147824	     77.77054310	    119.29242882	     -9.21219821	    155.48402001	     23.76498599	     20.25155560
      7.65000000	     -6.28218449	      1.05639166	     -1.36060130	      0.33985078	      1.14362422	     -0.06760093	      2.17793426	     -8.40733698	     -0.03461206	      0.82788778	      0.01444937	      4.08228262	     -2.73958295	     -7.49999987	      2.15564767	     -3.83189791	     -0.66276409	      1.77310069	      0.03094644	      0.29760493	     -8.44399227	     -7.49999987	      2.92056206	     -7.59247917	     26.31355353	   -107.51508895	    -35.55731102	   -244.16642422	     41.51439540	     71.24818452	    120.09855869	     -7.62898811	    167.47751481	     26.51573565	     15.33269280
      7.66666670	     -6.33461413	      1.05160068	     -1.33217198	      0.33998130	      1.14382844	     -0.06761403	      2.22178110	     -8.39157795	      0.07206315	      0.84858967	      0.01481068	      4.04612998	     -2.94248872	     -7.49999987	      2.24392105	     -3.85311809	     -0.66123341	      1.83018013	      0.03194267	      0.34606241	     -8.42558406	     -7.49999987	      3.21395024	     -8.08455978	     26.32161252	   -103.67468902	    -38.63484445	   -239.49057127	     46.72576749	     66.92083507	    120.95242892	     -6.01849245	    175.28342011	     28.64022453	     12.71812967
